<?xml version="1.0" encoding="utf-8"?>
<!-- Generator: Adobe Illustrator 22.0.1, SVG Export Plug-In . SVG Version: 6.00 Build 0)  -->
<svg version="1.1" id="Layer_1" xmlns="http://www.w3.org/2000/svg" xmlns:xlink="http://www.w3.org/1999/xlink" x="0px" y="0px"
	 viewBox="0 0 556 556" style="enable-background:new 0 0 556 556;" xml:space="preserve">
<style type="text/css">
	.st0{fill:#FFFFFF;}
</style>
<g>
	
		<image style="overflow:visible;opacity:0.75;" width="542" height="542" xlink:href="51433485D610599A.png"  transform="matrix(1 0 0 1 14 14)">
	</image>
	<g>
		<path class="st0" d="M278,22C136.8,22,22,136.8,22,278s114.8,256,256,256s256-114.8,256-256S419.2,22,278,22z M379.8,287
			l-149.3,96c-1.8,1.1-3.8,1.7-5.8,1.7c-1.8,0-3.5-0.4-5.1-1.3c-3.4-1.9-5.6-5.5-5.6-9.4V182c0-3.9,2.1-7.5,5.6-9.4
			c3.4-1.9,7.6-1.7,10.9,0.4l149.3,96c3,2,4.9,5.3,4.9,9S382.8,285,379.8,287z"/>
	</g>
</g>
</svg>
