<?xml version="1.0" encoding="iso-8859-1"?>
<!-- Generator: Adobe Illustrator 19.0.0, SVG Export Plug-In . SVG Version: 6.00 Build 0)  -->
<svg version="1.1" id="Layer_1" xmlns="http://www.w3.org/2000/svg" xmlns:xlink="http://www.w3.org/1999/xlink" x="0px" y="0px"
	 viewBox="0 0 496 496" style="enable-background:new 0 0 496 496;" xml:space="preserve">
<rect x="48" y="224" style="fill:#FFA64D;" width="400" height="224"/>
<g>
	<path style="fill:#333333;" d="M0,0v496h496V0H0z M480,16v48H16V16H480z M16,480V80h464v400H16z"/>
	<rect x="32" y="32" style="fill:#333333;" width="16" height="16"/>
	<rect x="64" y="32" style="fill:#333333;" width="16" height="16"/>
	<rect x="96" y="32" style="fill:#333333;" width="16" height="16"/>
	<path style="fill:#333333;" d="M48,192h400v-80H48V192z M432,176h-80v-48h80V176z M64,128h272v48H64V128z"/>
	<rect x="80" y="336" style="fill:#333333;" width="336" height="16"/>
	<rect x="80" y="368" style="fill:#333333;" width="336" height="16"/>
	<rect x="400" y="400" style="fill:#333333;" width="16" height="16"/>
	<rect x="80" y="400" style="fill:#333333;" width="304" height="16"/>
	<path style="fill:#333333;" d="M80,256v64h160v-64H80z M224,304H96v-32h128V304z"/>
	<path style="fill:#333333;" d="M256,320h160v-64H256V320z M272,272h128v32H272V272z"/>
</g>
<g>
</g>
<g>
</g>
<g>
</g>
<g>
</g>
<g>
</g>
<g>
</g>
<g>
</g>
<g>
</g>
<g>
</g>
<g>
</g>
<g>
</g>
<g>
</g>
<g>
</g>
<g>
</g>
<g>
</g>
</svg>
